<svg viewBox="0 0 28.0039 13.3213" xmlns="http://www.w3.org/2000/svg" xmlns:xlink="http://www.w3.org/1999/xlink" width="28.003906" height="13.321289" fill="none" customFrame="#000000">
	<path id="Arrow" d="M1 5.66064L27 5.66064L27 7.66064L1 7.66064L1 5.66064ZM1.02 7.64064L1 7.66064C0.44 7.66064 0 7.22064 0 6.66064C0 6.10064 0.44 5.66064 1 5.66064L1.02 5.68064L1.02 7.64064ZM25.5858 6.66064L20.636 1.7109C20.2401 1.31492 20.2401 0.692663 20.636 0.296684C21.032 -0.0992947 21.6543 -0.0992966 22.0503 0.296683L27.7071 5.95354C28.1031 6.34952 28.1031 6.97177 27.7071 7.36775L22.0503 13.0246C21.6543 13.4206 21.032 13.4206 20.636 13.0246C20.2401 12.6286 20.2401 12.0064 20.636 11.6104L25.5858 6.66064Z" fill="rgb(242,242,242)" fill-rule="nonzero" />
</svg>
