<svg viewBox="0 0 224.392 125.467" xmlns="http://www.w3.org/2000/svg" xmlns:xlink="http://www.w3.org/1999/xlink" width="224.392090" height="125.466553" fill="none">
	<defs>
		<g id="pixso_custom_effect_1">
			<effect x="0.000000" y="4.000000" visibility="visible" fill="rgb(0,0,0)" fill-opacity="0.25" effectType="dropShadow" stdDeviation="4" radius="0" />
		</g>
		<filter id="filter_1" width="224.392090" height="125.466553" x="0.000000" y="0.000000" filterUnits="userSpaceOnUse" customEffect="url(#pixso_custom_effect_1)" color-interpolation-filters="sRGB">
			<feFlood flood-opacity="0" result="BackgroundImageFix" />
			<feOffset dx="0.000000" dy="4.000000" in="SourceAlpha" />
			<feGaussianBlur stdDeviation="1.33333337" />
			<feColorMatrix type="matrix" values="0 0 0 0 0 0 0 0 0 0 0 0 0 0 0 0 0 0 0.25 0 " />
			<feBlend result="effect_dropShadow_1" in2="BackgroundImageFix" mode="normal" />
			<feBlend result="shape" in="SourceGraphic" in2="effect_dropShadow_1" mode="normal" />
		</filter>
	</defs>
	<g filter="url(#filter_1)">
		<rect id="logo-3" width="224.392090" height="125.466537" x="0.000000" y="0.000000" fill="rgb(255,255,255)" fill-opacity="0" />
	</g>
	<path id="Vector" d="M85.6773 72.0054C84.9265 72.0458 84.184 71.8337 83.5694 71.4031C83.3126 71.2139 83.106 70.9654 82.9675 70.679C82.8289 70.3927 82.7626 70.0771 82.7742 69.7595L82.7742 58.1288C82.7681 58.0795 82.7733 58.0296 82.7896 57.9826C82.8058 57.9357 82.8326 57.8931 82.8679 57.858C82.9031 57.8229 82.946 57.7963 82.9932 57.7802C83.0404 57.764 83.0907 57.7588 83.1403 57.7649L85.2607 57.7649C85.5005 57.7649 85.6142 57.8904 85.6142 58.1288L85.6142 68.8562C85.6142 69.3329 85.8287 69.5713 86.2705 69.5713C86.4577 69.579 86.6451 69.5578 86.8259 69.5086C87.0783 69.5086 87.2171 69.5839 87.2298 69.8097L87.4191 71.378C87.4282 71.4238 87.4273 71.4709 87.4165 71.5163C87.4058 71.5616 87.3853 71.6042 87.3566 71.641C87.3279 71.6779 87.2916 71.7082 87.2501 71.7299C87.2086 71.7516 87.163 71.7643 87.1161 71.767C86.6517 71.9195 86.1664 71.9999 85.6773 72.0054Z" fill="rgb(29.75,27.1469,27.1469)" fill-rule="nonzero" />
	<path id="Vector" d="M97.6051 70.6628C96.5396 71.5379 95.2006 72.0166 93.8185 72.0166C92.4364 72.0166 91.0975 71.5379 90.032 70.6628C89.0955 69.7231 88.5701 68.4538 88.5701 67.131C88.5701 65.8082 89.0955 64.5388 90.032 63.5991C91.0995 62.7285 92.4377 62.2527 93.8185 62.2527C95.1994 62.2527 96.5375 62.7285 97.6051 63.5991C98.52 64.5475 99.0308 65.8107 99.0308 67.1247C99.0308 68.4387 98.52 69.7019 97.6051 70.6503L97.6051 70.6628ZM92.0262 69.0067C92.5207 69.4519 93.164 69.6985 93.8311 69.6985C94.4983 69.6985 95.1416 69.4519 95.6361 69.0067C96.0836 68.4952 96.3301 67.8402 96.3301 67.1623C96.3301 66.4845 96.0836 65.8294 95.6361 65.318C95.1416 64.8727 94.4983 64.6261 93.8311 64.6261C93.164 64.6261 92.5207 64.8727 92.0262 65.318C91.5787 65.8294 91.3322 66.4845 91.3322 67.1623C91.3322 67.8402 91.5787 68.4952 92.0262 69.0067Z" fill="rgb(29.75,27.1469,27.1469)" fill-rule="nonzero" />
	<path id="Vector" d="M110.707 62.5703C110.946 62.5703 111.06 62.6957 111.06 62.9341L111.06 71.9301C111.082 72.5372 110.968 73.1416 110.725 73.6994C110.483 74.2572 110.119 74.7543 109.659 75.1545C108.638 76.0196 107.326 76.4679 105.986 76.4092C104.776 76.4515 103.582 76.123 102.565 75.4682C102.131 75.185 101.761 74.816 101.476 74.3844C101.192 73.9527 101 73.4675 100.912 72.9589C100.912 72.708 100.912 72.595 101.253 72.595L103.373 72.595C103.463 72.5981 103.55 72.6269 103.624 72.6781C103.698 72.7293 103.756 72.8007 103.79 72.8836C103.927 73.2647 104.201 73.5819 104.56 73.7744C104.996 73.9983 105.482 74.1105 105.973 74.1006C106.27 74.1168 106.566 74.074 106.846 73.9749C107.125 73.8758 107.382 73.7224 107.602 73.5235C107.802 73.3154 107.958 73.0692 108.06 72.7996C108.162 72.5301 108.208 72.2428 108.195 71.9552L108.195 71.1647C107.436 71.7198 106.512 72.0068 105.569 71.9802C104.91 72.0041 104.253 71.8952 103.637 71.6602C103.021 71.4252 102.459 71.0689 101.985 70.6127C101.075 69.6768 100.566 68.4262 100.566 67.1247C100.566 65.8232 101.075 64.5725 101.985 63.6367C102.461 63.1845 103.024 62.8316 103.639 62.5989C104.255 62.3662 104.911 62.2583 105.569 62.2817C106.539 62.2562 107.488 62.5618 108.258 63.1474L108.258 62.9467C108.252 62.8986 108.257 62.8498 108.273 62.8039C108.288 62.758 108.314 62.7161 108.348 62.6813C108.381 62.6464 108.423 62.6195 108.468 62.6025C108.514 62.5855 108.563 62.5787 108.611 62.5828L110.707 62.5703ZM105.809 69.7469C106.134 69.7569 106.458 69.6958 106.757 69.5679C107.055 69.44 107.322 69.2484 107.538 69.0067C107.958 68.468 108.186 67.806 108.186 67.1247C108.186 66.4434 107.958 65.7814 107.538 65.2427C107.323 65.0042 107.058 64.8155 106.761 64.6898C106.465 64.5641 106.144 64.5044 105.822 64.515C105.493 64.5047 105.166 64.5656 104.863 64.6934C104.56 64.8212 104.288 65.0129 104.067 65.2552C103.603 65.7705 103.358 66.4456 103.386 67.1372C103.363 67.822 103.602 68.49 104.055 69.0067C104.276 69.2484 104.548 69.4396 104.851 69.5674C105.153 69.6951 105.48 69.7564 105.809 69.7469Z" fill="rgb(29.75,27.1469,27.1469)" fill-rule="nonzero" />
	<path id="Vector" d="M121.953 70.6628C120.885 71.5334 119.547 72.0092 118.166 72.0092C116.785 72.0092 115.447 71.5334 114.38 70.6628C113.464 69.7123 112.953 68.447 112.953 67.1309C112.953 65.8149 113.464 64.5496 114.38 63.5991C115.448 62.7307 116.786 62.2563 118.166 62.2563C119.546 62.2563 120.884 62.7307 121.953 63.5991C122.868 64.5475 123.378 65.8107 123.378 67.1247C123.378 68.4387 122.868 69.7019 121.953 70.6503L121.953 70.6628ZM116.361 69.0067C116.603 69.2355 116.888 69.4143 117.2 69.5327C117.512 69.6512 117.845 69.7069 118.179 69.6967C118.51 69.7053 118.841 69.6487 119.15 69.5303C119.46 69.4119 119.743 69.234 119.984 69.0067C120.424 68.4918 120.666 67.838 120.666 67.1623C120.666 66.4866 120.424 65.8329 119.984 65.318C119.743 65.0907 119.46 64.9127 119.15 64.7943C118.841 64.6759 118.51 64.6193 118.179 64.6279C117.845 64.6177 117.512 64.6734 117.2 64.7919C116.888 64.9103 116.603 65.0891 116.361 65.318C115.921 65.8329 115.679 66.4866 115.679 67.1623C115.679 67.838 115.921 68.4918 116.361 69.0067Z" fill="rgb(29.75,27.1469,27.1469)" fill-rule="nonzero" />
	<path id="Vector" d="M127.935 60.4373C127.602 60.7276 127.173 60.8876 126.73 60.8876C126.287 60.8876 125.858 60.7276 125.525 60.4373C125.373 60.2954 125.253 60.1243 125.171 59.9344C125.088 59.7445 125.046 59.54 125.046 59.3332C125.046 59.1264 125.088 58.9218 125.171 58.732C125.253 58.5421 125.373 58.371 125.525 58.2291C125.862 57.946 126.289 57.7908 126.73 57.7908C127.171 57.7908 127.598 57.946 127.935 58.2291C128.087 58.371 128.207 58.5421 128.29 58.732C128.372 58.9218 128.414 59.1264 128.414 59.3332C128.414 59.54 128.372 59.7445 128.29 59.9344C128.207 60.1243 128.087 60.2954 127.935 60.4373ZM128.201 72.0053C127.45 72.0419 126.709 71.8301 126.093 71.4031C125.84 71.2111 125.637 70.9617 125.501 70.6757C125.364 70.3898 125.299 70.0756 125.31 69.7595L125.31 62.9341C125.304 62.8848 125.309 62.8349 125.325 62.7879C125.342 62.741 125.368 62.6984 125.404 62.6633C125.439 62.6282 125.482 62.6016 125.529 62.5855C125.576 62.5693 125.627 62.5641 125.676 62.5702L127.797 62.5702C128.036 62.5702 128.15 62.6957 128.15 62.9341L128.15 68.8561C128.15 69.3329 128.365 69.5713 128.794 69.5713C128.985 69.5781 129.177 69.557 129.362 69.5085C129.614 69.5085 129.753 69.5838 129.766 69.8096L129.955 71.378C129.964 71.4237 129.963 71.4708 129.952 71.5162C129.942 71.5616 129.921 71.6041 129.893 71.641C129.864 71.6778 129.828 71.7081 129.786 71.7299C129.745 71.7516 129.699 71.7642 129.652 71.7669C129.183 71.9203 128.694 72.0007 128.201 72.0053Z" fill="rgb(29.75,27.1469,27.1469)" fill-rule="nonzero" />
	<path id="Vector" d="M137.756 62.2693C138.418 62.2433 139.079 62.3498 139.699 62.5826C140.319 62.8154 140.886 63.1696 141.366 63.6243C142.258 64.5765 142.755 65.8296 142.755 67.1311C142.755 68.4326 142.258 69.6857 141.366 70.6379C140.888 71.0967 140.322 71.4544 139.702 71.6894C139.081 71.9245 138.419 72.032 137.756 72.0055C136.811 72.0264 135.884 71.7401 135.118 71.19L135.118 75.7193C135.118 75.9577 134.992 76.0706 134.752 76.0706L132.631 76.0706C132.583 76.0796 132.533 76.0767 132.486 76.0623C132.439 76.0478 132.396 76.0221 132.362 75.9875C132.327 75.9529 132.301 75.9104 132.286 75.8637C132.272 75.817 132.269 75.7674 132.278 75.7193L132.278 65.4311C132.293 65.3304 132.284 65.2277 132.252 65.1312C132.219 65.0346 132.165 64.9469 132.093 64.875C132.02 64.8031 131.932 64.7489 131.835 64.717C131.738 64.685 131.635 64.676 131.533 64.6908L131.117 64.6908C130.839 64.6908 130.7 64.5904 130.7 64.3897L130.7 62.9092C130.694 62.8176 130.719 62.7265 130.772 62.6511C130.825 62.5758 130.902 62.5207 130.991 62.4951C131.427 62.3374 131.889 62.2608 132.354 62.2693C132.817 62.2285 133.282 62.3262 133.689 62.5497C134.096 62.7732 134.426 63.1125 134.638 63.524C135.045 63.1151 135.531 62.793 136.067 62.5773C136.603 62.3616 137.178 62.2568 137.756 62.2693ZM135.787 69.0068C136.012 69.2406 136.282 69.4267 136.582 69.5538C136.881 69.6809 137.203 69.7465 137.529 69.7465C137.854 69.7465 138.176 69.6809 138.476 69.5538C138.775 69.4267 139.045 69.2406 139.27 69.0068C139.745 68.4813 139.994 67.7925 139.965 67.0872C139.998 66.3813 139.748 65.691 139.27 65.1676C139.045 64.9338 138.775 64.7477 138.476 64.6206C138.176 64.4935 137.854 64.4279 137.529 64.4279C137.203 64.4279 136.881 64.4935 136.582 64.6206C136.282 64.7477 136.012 64.9338 135.787 65.1676C135.328 65.7003 135.089 66.3862 135.118 67.0872C135.092 67.7876 135.331 68.4723 135.787 69.0068Z" fill="rgb(29.75,27.1469,27.1469)" fill-rule="nonzero" />
	<path id="Vector" d="M148.711 72.0053C147.578 72.0516 146.455 71.7822 145.468 71.2274C145.071 70.9902 144.734 70.6675 144.481 70.283C144.227 69.8986 144.064 69.4623 144.003 69.0066C144.003 68.7557 144.092 68.6302 144.369 68.6302L146.225 68.6302C146.313 68.6337 146.399 68.6612 146.472 68.7099C146.546 68.7586 146.604 68.8266 146.641 68.9063C146.906 69.5838 147.601 69.9225 148.711 69.9225C149.099 69.9401 149.485 69.8626 149.835 69.6967C149.956 69.6425 150.059 69.5566 150.135 69.4483C150.21 69.3401 150.255 69.2134 150.264 69.0819C150.264 68.7557 150.062 68.5299 149.658 68.3793C149.179 68.2208 148.684 68.1156 148.181 68.0656C147.586 67.9987 146.996 67.8939 146.414 67.752C145.849 67.6247 145.334 67.3319 144.937 66.9113C144.704 66.6255 144.532 66.2949 144.432 65.9402C144.333 65.5855 144.307 65.2141 144.358 64.8493C144.409 64.4845 144.535 64.134 144.728 63.8197C144.921 63.5053 145.177 63.2337 145.48 63.0219C146.39 62.4458 147.457 62.1652 148.535 62.2189C149.578 62.1838 150.61 62.4403 151.513 62.9591C151.878 63.1642 152.191 63.4474 152.431 63.7882C152.672 64.129 152.832 64.5187 152.902 64.929C152.902 65.1799 152.788 65.3054 152.561 65.3054L150.693 65.3054C150.614 65.31 150.536 65.2909 150.469 65.2506C150.401 65.2103 150.347 65.1507 150.314 65.0795C150.19 64.7824 149.955 64.5443 149.658 64.4146C149.324 64.2406 148.95 64.1542 148.573 64.1636C148.203 64.1436 147.833 64.217 147.5 64.3769C147.382 64.422 147.281 64.5011 147.209 64.604C147.137 64.7068 147.097 64.8288 147.096 64.9541C147.104 65.1256 147.167 65.2901 147.276 65.4234C147.385 65.5566 147.534 65.6516 147.702 65.6943C148.186 65.8759 148.69 66.0022 149.204 66.0707C149.794 66.1479 150.38 66.2568 150.958 66.3969C151.524 66.5242 152.038 66.817 152.435 67.2376C152.647 67.4692 152.811 67.7404 152.917 68.0355C153.023 68.3305 153.07 68.6435 153.053 68.9564C153.064 69.3902 152.962 69.8193 152.756 70.2019C152.55 70.5845 152.248 70.9076 151.879 71.1396C150.936 71.7413 149.831 72.0433 148.711 72.0053Z" fill="rgb(29.75,27.1469,27.1469)" fill-rule="nonzero" />
	<path id="Vector" d="M166.395 71.3781C166.402 71.4226 166.4 71.4681 166.389 71.5119C166.378 71.5558 166.359 71.597 166.332 71.6332C166.305 71.6695 166.271 71.7 166.232 71.7229C166.193 71.7459 166.149 71.7609 166.105 71.767C165.644 71.9166 165.163 71.9969 164.678 72.0054C164.199 72.0548 163.714 71.9802 163.272 71.789C162.83 71.5978 162.445 71.2963 162.154 70.9138C161.262 71.6758 160.109 72.0668 158.935 72.0054C158.39 72.0304 157.846 71.9417 157.337 71.745C156.828 71.5484 156.367 71.2482 155.982 70.8636C155.599 70.4607 155.303 69.9852 155.11 69.4657C154.917 68.9461 154.831 68.3931 154.858 67.8399L154.858 62.9342C154.858 62.6958 154.972 62.5703 155.212 62.5703L157.332 62.5703C157.572 62.5703 157.686 62.6958 157.686 62.9342L157.686 67.4635C157.663 68.0278 157.857 68.5796 158.228 69.0067C158.414 69.2024 158.64 69.3563 158.89 69.458C159.14 69.5597 159.41 69.6069 159.68 69.5964C159.957 69.6085 160.233 69.5659 160.493 69.4711C160.753 69.3764 160.991 69.2313 161.195 69.0444C161.387 68.8474 161.537 68.6132 161.634 68.3564C161.732 68.0996 161.776 67.8256 161.763 67.5513L161.763 62.9342C161.763 62.6958 161.876 62.5703 162.116 62.5703L164.262 62.5703C164.502 62.5703 164.615 62.6958 164.615 62.9342L164.615 68.8436C164.615 69.333 164.83 69.5713 165.246 69.5713C165.442 69.5789 165.637 69.5577 165.827 69.5086C165.875 69.4953 165.925 69.4929 165.973 69.5016C166.022 69.5103 166.068 69.5299 166.108 69.5589C166.149 69.5879 166.181 69.6255 166.205 69.6689C166.228 69.7124 166.241 69.7605 166.243 69.8097L166.395 71.3781Z" fill="rgb(29.75,27.1469,27.1469)" fill-rule="nonzero" />
	<path id="Vector" d="M186.451 71.3779C186.462 71.4229 186.463 71.4697 186.454 71.5151C186.445 71.5605 186.426 71.6033 186.398 71.6405C186.37 71.6777 186.334 71.7083 186.293 71.7302C186.252 71.752 186.207 71.7645 186.16 71.7669C185.691 71.9185 185.202 71.9989 184.709 72.0053C183.958 72.0438 183.216 71.8318 182.601 71.403C182.335 71.2194 182.118 70.9733 181.971 70.6866C181.823 70.3999 181.749 70.0814 181.755 69.7594L181.755 66.811C181.782 66.2483 181.592 65.6967 181.225 65.2677C181.048 65.0716 180.829 64.917 180.585 64.815C180.34 64.7131 180.076 64.6663 179.811 64.678C179.573 64.6691 179.335 64.7141 179.116 64.8097C178.898 64.9053 178.704 65.0491 178.549 65.2301C178.216 65.6505 178.046 66.1759 178.07 66.7106L178.07 71.3403C178.07 71.5787 177.956 71.7041 177.716 71.7041L175.583 71.7041C175.534 71.7103 175.483 71.705 175.436 71.6889C175.389 71.6728 175.346 71.6462 175.311 71.6111C175.275 71.576 175.249 71.5334 175.232 71.4864C175.216 71.4395 175.211 71.3895 175.217 71.3403L175.217 66.811C175.245 66.2545 175.07 65.7067 174.725 65.2677C174.571 65.0833 174.378 64.9349 174.16 64.8329C173.942 64.731 173.704 64.6781 173.463 64.678C173.205 64.6677 172.948 64.7115 172.709 64.8067C172.47 64.9018 172.254 65.0461 172.074 65.2301C171.713 65.6371 171.527 66.1687 171.557 66.7106L171.557 71.3403C171.563 71.3895 171.558 71.4395 171.541 71.4864C171.525 71.5334 171.498 71.576 171.463 71.6111C171.428 71.6462 171.385 71.6728 171.338 71.6889C171.291 71.705 171.24 71.7103 171.191 71.7041L169.133 71.7041C168.894 71.7041 168.78 71.5787 168.78 71.3403L168.78 65.4308C168.795 65.3302 168.786 65.2275 168.754 65.131C168.721 65.0344 168.667 64.9467 168.595 64.8747C168.522 64.8028 168.434 64.7487 168.337 64.7168C168.24 64.6848 168.136 64.6758 168.035 64.6906L167.619 64.6906C167.341 64.6906 167.202 64.5902 167.202 64.3895L167.202 62.909C167.196 62.8173 167.221 62.7263 167.274 62.6509C167.327 62.5756 167.404 62.5205 167.492 62.4949C167.929 62.3372 168.391 62.2606 168.856 62.2691C169.302 62.2313 169.749 62.3197 170.147 62.5239C170.544 62.7281 170.875 63.04 171.102 63.4234C171.528 63.0222 172.033 62.7126 172.584 62.514C173.136 62.3154 173.723 62.232 174.308 62.2691C174.877 62.2415 175.444 62.3475 175.964 62.5786C176.484 62.8097 176.941 63.1593 177.3 63.599C177.717 63.1477 178.231 62.7943 178.803 62.5643C179.375 62.3343 179.991 62.2335 180.607 62.2691C181.158 62.2435 181.708 62.3317 182.223 62.5282C182.738 62.7247 183.206 63.0253 183.598 63.4108C183.982 63.8129 184.279 64.2883 184.472 64.8081C184.665 65.3278 184.75 65.8812 184.721 66.4346L184.721 68.8561C184.721 69.3328 184.936 69.5712 185.34 69.5712C185.535 69.5803 185.731 69.5591 185.92 69.5085C186.181 69.5085 186.32 69.6089 186.337 69.8096L186.451 71.3779Z" fill="rgb(29.75,27.1469,27.1469)" fill-rule="nonzero" />
	<path id="Vector" d="M38.4465 60.9393C39.3777 57.2188 41.5343 53.9149 44.573 51.5538C47.6117 49.1926 51.3577 47.9099 55.2146 47.9099C59.0715 47.9099 62.8176 49.1926 65.8563 51.5538C68.895 53.9149 71.0516 57.2188 71.9828 60.9393L70.4682 60.9393C67.9131 60.9019 65.4104 61.6609 63.3116 63.1098C63.1905 63.197 63.064 63.2766 62.9329 63.3482L62.7562 63.3482C62.6252 63.2766 62.4987 63.197 62.3776 63.1098C60.2601 61.6945 57.7663 60.9385 55.2146 60.9385C52.663 60.9385 50.1692 61.6945 48.0517 63.1098C47.9306 63.197 47.8041 63.2766 47.6731 63.3482L47.4964 63.3482C47.3653 63.2766 47.2388 63.197 47.1177 63.1098C45.0188 61.6609 42.5162 60.9019 39.9611 60.9393L38.4465 60.9393ZM67.7419 68.806C68.5194 68.2041 69.483 67.8892 70.4682 67.9152L72.5003 67.9152L72.5003 63.8877L70.4682 63.8877C68.733 63.8669 67.0374 64.4037 65.634 65.4184C64.8443 65.9972 63.8889 66.3094 62.9077 66.3094C61.9265 66.3094 60.9711 65.9972 60.1814 65.4184C58.7424 64.4227 57.0311 63.8889 55.2777 63.8889C53.5244 63.8889 51.8131 64.4227 50.3741 65.4184C49.5844 65.9972 48.629 66.3094 47.6478 66.3094C46.6666 66.3094 45.7112 65.9972 44.9215 65.4184C43.5008 64.3908 41.7809 63.8532 40.0242 63.8877L37.929 63.8877L37.929 67.9152L39.9611 67.9152C40.9462 67.8892 41.9099 68.2041 42.6874 68.806C44.1238 69.8024 45.8332 70.3367 47.5847 70.3367C49.3363 70.3367 51.0456 69.8024 52.482 68.806C53.2605 68.206 54.2235 67.8913 55.2083 67.9152C56.1938 67.8871 57.1581 68.2022 57.9347 68.806C59.3737 69.8018 61.0849 70.3355 62.8383 70.3355C64.5916 70.3355 66.3029 69.8018 67.7419 68.806ZM67.7419 76.0078C68.5194 75.4059 69.483 75.091 70.4682 75.117L72.5003 75.117L72.5003 71.0895L70.4682 71.0895C68.733 71.0686 67.0374 71.6055 65.634 72.6202C64.8443 73.199 63.8889 73.5112 62.9077 73.5112C61.9265 73.5112 60.9711 73.199 60.1814 72.6202C58.7424 71.6245 57.0311 71.0907 55.2777 71.0907C53.5244 71.0907 51.8131 71.6245 50.3741 72.6202C49.5844 73.199 48.629 73.5112 47.6478 73.5112C46.6666 73.5112 45.7112 73.199 44.9215 72.6202C43.5008 71.5926 41.7809 71.055 40.0242 71.0895L37.929 71.0895L37.929 75.117L39.9611 75.117C40.9462 75.091 41.9099 75.4059 42.6874 76.0078C44.1238 77.0042 45.8332 77.5385 47.5847 77.5385C49.3363 77.5385 51.0456 77.0042 52.482 76.0078C53.2605 75.4077 54.2235 75.0931 55.2083 75.117C56.1938 75.0889 57.1581 75.404 57.9347 76.0078C59.3737 77.0036 61.0849 77.5373 62.8383 77.5373C64.5916 77.5373 66.3029 77.0036 67.7419 76.0078Z" fill="rgb(29.75,27.1469,27.1469)" fill-rule="nonzero" />
</svg>
