<svg viewBox="0 0 225.598 126.673" xmlns="http://www.w3.org/2000/svg" xmlns:xlink="http://www.w3.org/1999/xlink" width="225.598389" height="126.672852" fill="none">
	<rect id="logo-1 1" width="225.598495" height="126.672951" x="0.000000" y="0.000000" fill="rgb(255,255,255)" fill-opacity="0" />
	<path id="Vector" d="M78.0547 56.0656L82.1281 56.0656L82.1281 72.5331L78.0547 72.5331L78.0547 56.0656ZM83.7524 66.3388C83.7524 62.2599 86.2903 59.8151 90.0973 59.8151C93.9042 59.8151 96.4422 62.2599 96.4422 66.3388C96.4422 70.4177 93.993 72.8878 90.0973 72.8878C86.2015 72.8878 83.7524 70.5063 83.7524 66.3388ZM92.4068 66.3388C92.4068 64.0967 91.5312 62.7793 90.1353 62.7793C88.7395 62.7793 87.8766 64.046 87.8766 66.3388C87.8766 68.6316 88.7395 69.8856 90.1353 69.8856C91.5312 69.8856 92.4322 68.6316 92.4322 66.3515L92.4068 66.3388ZM98.0664 73.3818L102 73.3818C102.179 73.8046 102.492 74.1572 102.891 74.386C103.289 74.6147 103.752 74.7069 104.208 74.6485C105.769 74.6485 106.581 73.8125 106.581 72.5711L106.581 70.291L106.594 70.291C106.258 71.001 105.714 71.5927 105.035 71.9884C104.355 72.3841 103.572 72.5652 102.787 72.5078C99.8049 72.5078 97.8253 70.2403 97.8253 66.3388C97.8253 62.4373 99.7161 60.0051 102.901 60.0051C103.706 59.9622 104.504 60.1693 105.186 60.5981C105.868 61.0269 106.4 61.6562 106.708 62.3993L106.594 62.3993L106.594 60.1065L110.629 60.1065L110.629 72.4444C110.629 75.4212 107.99 77.2833 104.107 77.2833C100.579 77.2707 98.3202 75.6619 98.0918 73.3945L98.0664 73.3818ZM106.594 66.3388C106.594 64.35 105.68 63.096 104.234 63.096C102.787 63.096 101.899 64.3627 101.899 66.3388C101.899 68.3149 102.774 69.4803 104.234 69.4803C105.693 69.4803 106.594 68.4036 106.594 66.3388ZM112.241 66.3388C112.241 62.2599 114.779 59.8151 118.586 59.8151C122.393 59.8151 124.931 62.2599 124.931 66.3388C124.931 70.4177 122.469 72.8878 118.586 72.8878C114.703 72.8878 112.266 70.5063 112.266 66.3388L112.241 66.3388ZM120.895 66.3388C120.895 64.0967 120.007 62.7793 118.624 62.7793C117.241 62.7793 116.365 64.046 116.365 66.3388C116.365 68.6316 117.228 69.8856 118.624 69.8856C120.02 69.8856 120.921 68.6316 120.921 66.3515L120.895 66.3388ZM126.58 57.1043C126.563 56.6901 126.669 56.2801 126.887 55.927C127.105 55.5739 127.423 55.2939 127.802 55.123C128.18 54.9521 128.601 54.8981 129.01 54.9679C129.42 55.0378 129.799 55.2283 130.099 55.515C130.399 55.8017 130.606 56.1714 130.694 56.5767C130.781 56.9819 130.746 57.404 130.591 57.7888C130.437 58.1736 130.17 58.5034 129.826 58.7359C129.482 58.9683 129.077 59.0927 128.661 59.0931C128.396 59.0998 128.132 59.0539 127.884 58.9579C127.637 58.8619 127.411 58.7178 127.22 58.534C127.029 58.3502 126.876 58.1302 126.77 57.887C126.665 57.6437 126.609 57.382 126.606 57.117L126.58 57.1043ZM126.58 60.0938L130.704 60.0938L130.704 72.5838L126.644 72.5838L126.58 60.0938ZM145.539 66.3388C145.539 70.405 143.712 72.7611 140.603 72.7611C139.807 72.8101 139.015 72.6141 138.334 72.1996C137.653 71.785 137.116 71.1719 136.796 70.443L136.719 70.443L136.719 76.5993L132.646 76.5993L132.646 60.1318L136.694 60.1318L136.694 62.3613L136.77 62.3613C137.08 61.618 137.611 60.9882 138.293 60.5575C138.974 60.1268 139.772 59.9162 140.577 59.9545C143.775 59.9291 145.615 62.2726 145.615 66.3515L145.539 66.3388ZM141.389 66.3388C141.389 64.3627 140.463 63.0833 139.029 63.0833C137.595 63.0833 136.694 64.35 136.681 66.3388C136.669 68.3276 137.595 69.5816 139.029 69.5816C140.463 69.5816 141.465 68.4036 141.465 66.3515L141.389 66.3388ZM152.493 59.8025C155.906 59.8025 158.026 61.4112 158.051 63.9953L154.333 63.9953C154.333 63.096 153.584 62.5386 152.467 62.5386C151.351 62.5386 150.818 62.9693 150.818 63.6153C150.818 64.2614 151.287 64.464 152.226 64.654L154.84 65.1861C157.378 65.7181 158.394 66.7315 158.394 68.6189C158.394 71.1524 156.046 72.8751 152.556 72.8751C149.067 72.8751 146.795 71.203 146.63 68.6569L150.577 68.6569C150.691 69.5816 151.427 70.1263 152.62 70.1263C153.813 70.1263 154.371 69.7463 154.371 69.0749C154.371 68.4036 153.99 68.2896 153.013 68.0869L150.653 67.5929C148.204 67.0735 146.922 65.7941 146.922 63.8813C146.998 61.3986 149.13 59.8151 152.569 59.8151L152.493 59.8025ZM172.035 72.5711L168.089 72.5711L168.089 70.2277L168.012 70.2277C167.791 71.0093 167.31 71.6925 166.648 72.1645C165.986 72.6366 165.183 72.8694 164.37 72.8245C163.757 72.8444 163.146 72.7346 162.579 72.5024C162.011 72.2701 161.499 71.9206 161.076 71.4769C160.653 71.0331 160.328 70.505 160.124 69.9273C159.92 69.3496 159.841 68.7354 159.891 68.1249L159.891 60.1065L163.964 60.1065L163.964 67.2508C163.964 68.7202 164.738 69.5183 166.007 69.5183C166.305 69.5161 166.599 69.4501 166.869 69.3248C167.139 69.1996 167.379 69.0179 167.572 68.7922C167.766 68.5665 167.909 68.3019 167.991 68.0163C168.074 67.7307 168.094 67.4308 168.05 67.1368L168.05 60.1065L172.111 60.1065L172.035 72.5711ZM174.002 60.0938L177.961 60.0938L177.961 62.5006L178.05 62.5006C178.269 61.7296 178.737 61.0528 179.383 60.576C180.028 60.0992 180.813 59.8495 181.616 59.8658C182.422 59.7959 183.224 60.0285 183.867 60.5181C184.51 61.0077 184.947 61.7191 185.093 62.5133L185.27 62.5133C185.524 61.7149 186.035 61.0225 186.723 60.5437C187.412 60.065 188.239 59.8266 189.077 59.8658C189.634 59.8446 190.19 59.9412 190.707 60.149C191.224 60.3568 191.691 60.6714 192.078 61.0719C192.465 61.4725 192.763 61.9502 192.952 62.4736C193.141 62.997 193.218 63.5544 193.176 64.1094L193.176 72.5838L189.077 72.5838L189.077 65.1481C189.077 63.8813 188.481 63.172 187.326 63.172C187.07 63.1678 186.816 63.2189 186.582 63.3219C186.347 63.4248 186.138 63.5772 185.968 63.7685C185.798 63.9598 185.671 64.1856 185.597 64.4302C185.523 64.6749 185.502 64.9327 185.537 65.1861L185.537 72.5838L181.654 72.5838L181.654 65.1101C181.654 63.8433 181.032 63.172 179.915 63.172C179.657 63.1699 179.4 63.2231 179.164 63.3281C178.927 63.433 178.716 63.5873 178.544 63.7804C178.372 63.9736 178.244 64.2012 178.167 64.448C178.091 64.6948 178.068 64.9551 178.101 65.2114L178.101 72.5838L174.027 72.5838L174.002 60.0938Z" fill="rgb(29.75,27.1469,27.1469)" fill-rule="nonzero" />
	<path id="Vector" d="M69.9967 57.1424C69.9968 54.6212 69.2342 52.1587 67.8086 50.0776C66.383 47.9964 64.3609 46.3936 62.0073 45.479C59.6537 44.5644 57.0783 44.3807 54.6183 44.952C52.1584 45.5233 49.9286 46.8229 48.2211 48.6806L32.3843 48.6806L32.3843 82.0463L65.8218 82.0463L65.8218 66.4528C67.1342 65.2811 68.1843 63.8462 68.9037 62.2419C69.6231 60.6377 69.9955 58.9 69.9967 57.1424ZM63.563 57.1424C63.5655 58.3505 63.2089 59.5322 62.5384 60.5379C61.8678 61.5437 60.9134 62.3282 59.796 62.7923C58.6786 63.2563 57.4484 63.379 56.2611 63.1449C55.0738 62.9107 53.9827 62.3302 53.1261 61.4768C52.2694 60.6235 51.6856 59.5356 51.4485 58.3508C51.2115 57.1661 51.3319 55.9378 51.7945 54.8214C52.257 53.705 53.041 52.7507 54.0471 52.0793C55.0532 51.4078 56.2363 51.0494 57.4465 51.0494C59.0665 51.0494 60.6204 51.6909 61.7671 52.8332C62.9137 53.9755 63.5596 55.5252 63.563 57.1424ZM59.3881 75.6239L38.818 75.6239L38.818 55.1029L45.0867 55.1029C44.9656 55.7761 44.902 56.4584 44.8964 57.1424C44.8997 60.464 46.2231 63.6485 48.5759 65.9973C50.9288 68.346 54.1191 69.667 57.4465 69.6703C58.0971 69.6669 58.7463 69.6118 59.3881 69.5056L59.3881 75.6239Z" fill="rgb(29.75,27.1469,27.1469)" fill-rule="nonzero" />
</svg>
