<svg viewBox="0 0 225.598 126.673" xmlns="http://www.w3.org/2000/svg" xmlns:xlink="http://www.w3.org/1999/xlink" width="225.598389" height="126.672852" fill="none">
	<defs>
		<g id="pixso_custom_effect_0">
			<effect x="0.000000" y="4.000000" visibility="visible" fill="rgb(0,0,0)" fill-opacity="0.25" effectType="dropShadow" stdDeviation="4" radius="0" />
		</g>
		<filter id="filter_0" width="225.598389" height="126.672852" x="0.000000" y="0.000000" filterUnits="userSpaceOnUse" customEffect="url(#pixso_custom_effect_0)" color-interpolation-filters="sRGB">
			<feFlood flood-opacity="0" result="BackgroundImageFix" />
			<feOffset dx="0.000000" dy="4.000000" in="SourceAlpha" />
			<feGaussianBlur stdDeviation="1.33333337" />
			<feColorMatrix type="matrix" values="0 0 0 0 0 0 0 0 0 0 0 0 0 0 0 0 0 0 0.25 0 " />
			<feBlend result="effect_dropShadow_1" in2="BackgroundImageFix" mode="normal" />
			<feBlend result="shape" in="SourceGraphic" in2="effect_dropShadow_1" mode="normal" />
		</filter>
	</defs>
	<g filter="url(#filter_0)">
		<rect id="logo-7 1" width="225.598495" height="126.672951" x="0.000000" y="0.000000" fill="rgb(255,255,255)" fill-opacity="0" />
	</g>
	<path id="Vector" d="M81.0493 55.8247L84.8562 55.8247L84.8562 71.1901L81.0493 71.1901L81.0493 55.8247ZM86.3663 65.3885C86.3663 61.5883 88.7012 59.3209 92.3051 59.3209C95.909 59.3209 98.2439 61.5883 98.2439 65.3885C98.2439 69.1887 95.9598 71.4688 92.3051 71.4688C88.6505 71.4688 86.3663 69.252 86.3663 65.3885ZM94.4243 65.3885C94.4243 63.2984 93.5995 62.0697 92.3051 62.0697C91.0108 62.0697 90.1986 63.3364 90.1986 65.3885C90.1986 67.4406 90.9981 68.682 92.3051 68.682C93.6122 68.682 94.4243 67.5166 94.4243 65.4012L94.4243 65.3885ZM99.6779 71.9375L103.333 71.9375C103.506 72.3232 103.801 72.6426 104.171 72.848C104.541 73.0534 104.968 73.1339 105.388 73.0776C106.835 73.0776 107.596 72.2922 107.596 71.1521L107.596 69.024L107.52 69.024C107.217 69.6763 106.725 70.2228 106.107 70.5931C105.49 70.9634 104.775 71.1405 104.056 71.1015C101.277 71.1015 99.4368 68.986 99.4368 65.3505C99.4368 61.715 101.188 59.4222 104.107 59.4222C104.848 59.3932 105.581 59.5912 106.207 59.9896C106.833 60.3881 107.322 60.968 107.609 61.6517L107.609 59.5362L111.416 59.5362L111.416 71.0635C111.416 73.8376 108.967 75.5604 105.35 75.5604C101.987 75.5604 99.8936 74.0529 99.6779 71.9502L99.6779 71.9375ZM107.609 65.3758C107.609 63.5264 106.759 62.361 105.414 62.361C104.069 62.361 103.244 63.5138 103.244 65.3758C103.244 67.2379 104.056 68.2893 105.414 68.2893C106.771 68.2893 107.609 67.2633 107.609 65.3885L107.609 65.3758ZM112.85 65.3758C112.85 61.5757 115.185 59.3082 118.789 59.3082C122.393 59.3082 124.74 61.5757 124.74 65.3758C124.74 69.176 122.456 71.4561 118.789 71.4561C115.121 71.4561 112.85 69.252 112.85 65.3885L112.85 65.3758ZM120.908 65.3758C120.908 63.2857 120.083 62.057 118.789 62.057C117.494 62.057 116.746 63.3364 116.746 65.4012C116.746 67.466 117.545 68.6947 118.839 68.6947C120.134 68.6947 120.908 67.5166 120.908 65.4012L120.908 65.3758ZM126.187 56.7748C126.177 56.3911 126.281 56.0131 126.487 55.6887C126.692 55.3643 126.99 55.1081 127.341 54.9526C127.693 54.7971 128.082 54.7493 128.461 54.8152C128.84 54.8811 129.191 55.0578 129.469 55.3229C129.747 55.588 129.94 55.9296 130.023 56.3043C130.106 56.679 130.076 57.0699 129.937 57.4276C129.797 57.7852 129.555 58.0935 129.24 58.3133C128.924 58.5331 128.551 58.6545 128.166 58.6622C127.912 58.6797 127.656 58.6443 127.415 58.5585C127.175 58.4726 126.955 58.338 126.769 58.1631C126.583 57.9882 126.435 57.7769 126.335 57.5423C126.235 57.3078 126.184 57.0551 126.187 56.8001L126.187 56.7748ZM126.187 59.5616L129.994 59.5616L129.994 71.1901L126.187 71.1901L126.187 59.5616ZM143.813 65.3758C143.813 69.176 142.125 71.3421 139.232 71.3421C138.49 71.3897 137.751 71.2086 137.116 70.8235C136.48 70.4384 135.979 69.8677 135.679 69.1887L135.603 69.1887L135.603 74.9143L131.796 74.9143L131.796 59.5362L135.603 59.5362L135.603 61.6137L135.679 61.6137C135.965 60.9234 136.457 60.3379 137.088 59.9368C137.719 59.5356 138.459 59.3382 139.206 59.3716C142.125 59.4222 143.864 61.601 143.864 65.4012L143.813 65.3758ZM140.006 65.3758C140.006 63.5264 139.156 62.3484 137.823 62.3484C136.491 62.3484 135.641 63.5391 135.628 65.3758C135.615 67.2126 136.491 68.3907 137.823 68.3907C139.156 68.3907 140.006 67.2379 140.006 65.4012L140.006 65.3758ZM150.348 59.2956C153.508 59.2956 155.424 60.7903 155.513 63.1844L152.049 63.1844C152.049 62.361 151.363 61.8417 150.31 61.8417C149.257 61.8417 148.787 62.247 148.787 62.8424C148.787 63.4378 149.206 63.6278 150.056 63.8051L152.493 64.2991C154.815 64.7932 155.805 65.7305 155.805 67.4913C155.805 69.8981 153.609 71.4435 150.373 71.4435C147.138 71.4435 145.018 69.8981 144.853 67.5293L148.521 67.5293C148.635 68.3907 149.32 68.8974 150.437 68.8974C151.554 68.8974 152.061 68.53 152.061 67.922C152.061 67.3139 151.706 67.1873 150.792 66.9973L148.597 66.5286C146.325 66.0599 145.133 64.8565 145.133 63.0831C145.158 60.803 147.201 59.3209 150.348 59.3209L150.348 59.2956ZM168.507 71.1648L164.84 71.1648L164.84 68.9987L164.764 68.9987C164.562 69.726 164.117 70.3625 163.503 70.8026C162.889 71.2427 162.143 71.4599 161.388 71.4182C160.81 71.451 160.231 71.3595 159.691 71.1499C159.151 70.9403 158.663 70.6174 158.258 70.2031C157.854 69.7888 157.544 69.2928 157.348 68.7484C157.153 68.2041 157.076 67.6242 157.124 67.0479L157.124 59.5362L160.931 59.5362L160.931 66.1739C160.931 67.5546 161.642 68.2893 162.822 68.2893C163.099 68.2899 163.373 68.2314 163.625 68.1178C163.877 68.0041 164.102 67.838 164.285 67.6305C164.467 67.4229 164.603 67.1788 164.684 66.9145C164.764 66.6502 164.787 66.3718 164.751 66.0979L164.751 59.5362L168.558 59.5362L168.507 71.1648ZM170.347 59.5362L174.027 59.5362L174.027 61.7783L174.103 61.7783C174.305 61.0607 174.74 60.4302 175.339 59.9855C175.939 59.5409 176.669 59.3071 177.415 59.3209C178.175 59.2602 178.93 59.4871 179.529 59.9565C180.129 60.426 180.529 61.1035 180.651 61.8543L180.727 61.8543C180.958 61.0955 181.434 60.4347 182.082 59.976C182.73 59.5173 183.512 59.2868 184.306 59.3209C184.824 59.3035 185.339 59.3951 185.819 59.5896C186.299 59.7842 186.733 60.0773 187.092 60.4501C187.451 60.8228 187.727 61.2668 187.903 61.7531C188.079 62.2395 188.15 62.7574 188.113 63.2731L188.113 71.1901L184.306 71.1901L184.306 64.2865C184.306 63.0197 183.735 62.437 182.669 62.437C182.431 62.435 182.196 62.4839 181.979 62.5805C181.762 62.677 181.568 62.8189 181.41 62.9965C181.253 63.1742 181.135 63.3836 181.065 63.6105C180.996 63.8374 180.976 64.0765 181.007 64.3118L181.007 71.1901L177.39 71.1901L177.39 64.2358C177.39 63.0704 176.819 62.437 175.778 62.437C175.538 62.4371 175.3 62.4881 175.081 62.5865C174.862 62.685 174.666 62.8288 174.507 63.0083C174.347 63.1879 174.228 63.3992 174.156 63.6282C174.084 63.8573 174.062 64.0989 174.091 64.3371L174.091 71.1901L170.284 71.1901L170.347 59.5362Z" fill="rgb(29.75,27.1469,27.1469)" fill-rule="nonzero" />
	<path id="Vector" d="M70.4031 56.5218C69.7573 55.0477 68.9026 53.6741 67.8652 52.4429C66.3316 50.5686 64.4177 49.0397 62.2495 47.9569C60.0813 46.8741 57.708 46.262 55.2858 46.1608C52.8636 46.0595 50.4473 46.4715 48.1961 47.3696C45.9448 48.2677 43.9096 49.6316 42.2245 51.3714C40.5393 53.1112 39.2423 55.1876 38.419 57.4638C37.5956 59.74 37.2645 62.1645 37.4474 64.5777C37.6303 66.9909 38.3231 69.338 39.4802 71.4646C40.6373 73.5913 42.2325 75.4492 44.1607 76.9161C45.3979 77.8761 46.7651 78.6566 48.2214 79.2342C50.2632 80.0695 52.4485 80.4997 54.6551 80.5009C59.21 80.4909 63.575 78.6785 66.7934 75.461C70.0119 72.2436 71.821 67.8836 71.8244 63.3368C71.8277 60.9914 71.3438 58.6709 70.4031 56.5218ZM54.6424 49.6434C56.624 49.6432 58.5817 50.0755 60.3782 50.9101C59.9401 51.0991 59.4795 51.2311 59.0077 51.3028C57.4552 51.5272 56.0171 52.2466 54.9079 53.3539C53.7987 54.4611 53.0779 55.8967 52.8532 57.4465C52.7545 58.3156 52.3585 59.1242 51.7321 59.7357C51.1056 60.3472 50.2869 60.7243 49.4142 60.8033C47.8618 61.0276 46.4236 61.7471 45.3144 62.8544C44.2052 63.9616 43.4844 65.3972 43.2597 66.9469C43.1836 67.7733 42.8304 68.5499 42.2572 69.151C41.2683 67.0651 40.824 64.7633 40.9658 62.4598C41.1075 60.1564 41.8307 57.9262 43.0681 55.9767C44.3054 54.0273 46.0167 52.422 48.0426 51.3102C50.0685 50.1985 52.3432 49.6164 54.6551 49.6181L54.6424 49.6434ZM44.148 72.2039C44.3003 72.0645 44.4526 71.9379 44.6048 71.7858C45.7338 70.6932 46.4584 69.2509 46.6606 67.6943C46.7425 66.8193 47.1339 66.002 47.7646 65.3889C48.3715 64.7582 49.1883 64.3708 50.0614 64.2995C51.6139 64.0751 53.0521 63.3557 54.1613 62.2484C55.2705 61.1412 55.9912 59.7056 56.216 58.1558C56.2709 57.2406 56.6643 56.3784 57.32 55.7364C57.9418 55.118 58.7665 54.7447 59.6422 54.685C61.0684 54.4891 62.3986 53.8562 63.4491 52.8736C64.6453 53.8643 65.6588 55.056 66.4439 56.3951C66.3957 56.4601 66.3404 56.5196 66.2789 56.5724C65.6732 57.2086 64.8574 57.6045 63.9821 57.6871C62.428 57.9076 60.9877 58.6258 59.8778 59.7337C58.7678 60.8417 58.0484 62.2795 57.8276 63.8308C57.7381 64.7028 57.3494 65.5172 56.7273 66.1359C56.1052 66.7546 55.2879 67.1396 54.414 67.2256C52.857 67.4482 51.4135 68.1663 50.2979 69.2731C49.1822 70.3799 48.454 71.8164 48.2214 73.3693C48.1531 73.9883 47.9401 74.5828 47.5996 75.1047C46.2976 74.333 45.1316 73.353 44.148 72.2039ZM54.6424 77.0934C53.3548 77.0948 52.0733 76.9157 50.8355 76.5614C51.2589 75.7735 51.5342 74.9149 51.6477 74.028C51.7366 73.1578 52.1235 72.345 52.743 71.7265C53.3626 71.1081 54.1769 70.7219 55.0485 70.6331C56.6033 70.4113 58.0443 69.6929 59.156 68.5855C60.2677 67.478 60.9903 66.041 61.2157 64.4895C61.3047 63.6194 61.6915 62.8065 62.3111 62.1881C62.9306 61.5696 63.7449 61.1834 64.6166 61.0947C65.7866 60.9427 66.9018 60.5079 67.8652 59.8279C68.4001 61.852 68.4635 63.9716 68.0504 66.0239C67.6373 68.0763 66.7588 70.0069 65.4822 71.6677C64.2056 73.3285 62.5648 74.6754 60.6858 75.6049C58.8068 76.5344 56.7395 77.022 54.6424 77.0301L54.6424 77.0934Z" fill="rgb(29.75,27.1469,27.1469)" fill-rule="nonzero" />
</svg>
