<svg viewBox="0 0 72 72" xmlns="http://www.w3.org/2000/svg" xmlns:xlink="http://www.w3.org/1999/xlink" width="72.000000" height="72.000000" fill="none" customFrame="#000000">
	<g id="Circle">
		<circle id="Ellipse 153" cx="36" cy="36" r="36" fill="rgb(102,28,231)" />
		<path id="02" d="M28.528 48.736C26.896 48.736 25.456 48.3893 24.208 47.696C22.96 46.992 21.984 46.016 21.28 44.768C20.5867 43.52 20.24 42.08 20.24 40.448L20.24 33.024C20.24 31.392 20.5867 29.952 21.28 28.704C21.984 27.456 22.96 26.4853 24.208 25.792C25.456 25.088 26.896 24.736 28.528 24.736C30.16 24.736 31.5947 25.088 32.832 25.792C34.08 26.4853 35.056 27.456 35.76 28.704C36.464 29.952 36.816 31.392 36.816 33.024L36.816 40.448C36.816 42.08 36.464 43.52 35.76 44.768C35.056 46.016 34.08 46.992 32.832 47.696C31.5947 48.3893 30.16 48.736 28.528 48.736ZM28.528 45.072C29.3387 45.072 30.0747 44.88 30.736 44.496C31.3973 44.1013 31.92 43.5787 32.304 42.928C32.688 42.2667 32.88 41.5307 32.88 40.72L32.88 32.736C32.88 31.9147 32.688 31.1787 32.304 30.528C31.92 29.8667 31.3973 29.344 30.736 28.96C30.0747 28.5653 29.3387 28.368 28.528 28.368C27.7173 28.368 26.9813 28.5653 26.32 28.96C25.6587 29.344 25.136 29.8667 24.752 30.528C24.368 31.1787 24.176 31.9147 24.176 32.736L24.176 40.72C24.176 41.5307 24.368 42.2667 24.752 42.928C25.136 43.5787 25.6587 44.1013 26.32 44.496C26.9813 44.88 27.7173 45.072 28.528 45.072ZM40.6625 48.224L40.6625 44.864L50.5185 36.08C51.2865 35.3973 51.8198 34.752 52.1185 34.144C52.4172 33.536 52.5665 32.9493 52.5665 32.384C52.5665 31.616 52.4012 30.9333 52.0705 30.336C51.7398 29.728 51.2812 29.248 50.6945 28.896C50.1185 28.544 49.4518 28.368 48.6945 28.368C47.8945 28.368 47.1852 28.5547 46.5665 28.928C45.9585 29.2907 45.4838 29.776 45.1425 30.384C44.8012 30.992 44.6412 31.648 44.6625 32.352L40.6945 32.352C40.6945 30.816 41.0358 29.4773 41.7185 28.336C42.4118 27.1947 43.3612 26.3093 44.5665 25.68C45.7825 25.0507 47.1852 24.736 48.7745 24.736C50.2465 24.736 51.5692 25.0667 52.7425 25.728C53.9158 26.3787 54.8385 27.2853 55.5105 28.448C56.1825 29.6 56.5185 30.928 56.5185 32.432C56.5185 33.5307 56.3692 34.4533 56.0705 35.2C55.7718 35.9467 55.3238 36.6347 54.7265 37.264C54.1398 37.8933 53.4092 38.592 52.5345 39.36L45.5425 45.552L45.1905 44.592L56.5185 44.592L56.5185 48.224L40.6625 48.224Z" fill="rgb(255,255,255)" fill-rule="nonzero" />
	</g>
</svg>
