<svg viewBox="0 0 586 362" xmlns="http://www.w3.org/2000/svg" xmlns:xlink="http://www.w3.org/1999/xlink" width="586.000000" height="362.000000" fill="none" customFrame="#000000">
	<mask id="mask_0" width="36.000000" height="36.000000" x="388.000000" y="135.000000" maskUnits="userSpaceOnUse">
		<g filter="url(#pixso_custom_mask_type_alpha)">
			<path id="Star 5" d="M410.926 144.032C411.357 144.823 412.121 145.378 413.007 145.544L417.712 146.425C420.046 146.862 420.971 149.709 419.34 151.435L416.051 154.913C415.432 155.568 415.14 156.467 415.256 157.36L415.872 162.107C416.178 164.462 413.756 166.222 411.611 165.203L407.286 163.151C406.472 162.764 405.528 162.764 404.714 163.151L400.389 165.203C398.244 166.222 395.822 164.462 396.128 162.107L396.744 157.36C396.86 156.467 396.568 155.568 395.949 154.913L392.66 151.435C391.029 149.709 391.954 146.862 394.288 146.425L398.993 145.544C399.879 145.378 400.643 144.823 401.074 144.032L403.366 139.829C404.503 137.745 407.497 137.745 408.634 139.829L410.926 144.032Z" fill="rgb(214.625,208.544,199.422)" fill-rule="evenodd" />
		</g>
	</mask>
	<defs>
		<g id="pixso_custom_effect_1">
			<effect x="0.000000" y="4.000000" visibility="visible" fill="rgb(0,0,0)" fill-opacity="0.25" effectType="dropShadow" stdDeviation="4" radius="0" />
		</g>
		<filter id="filter_1" width="586.000000" height="362.000000" x="0.000000" y="0.000000" filterUnits="userSpaceOnUse" customEffect="url(#pixso_custom_effect_1)" color-interpolation-filters="sRGB">
			<feFlood flood-opacity="0" result="BackgroundImageFix" />
			<feColorMatrix result="hardAlpha" in="SourceAlpha" type="matrix" values="0 0 0 0 0 0 0 0 0 0 0 0 0 0 0 0 0 0 127 0 " />
			<feOffset dx="0.000000" dy="4.000000" in="hardAlpha" />
			<feGaussianBlur stdDeviation="1.33333337" />
			<feComposite k2="-1" k3="1" in2="hardAlpha" operator="out" />
			<feColorMatrix type="matrix" values="0 0 0 0 0 0 0 0 0 0 0 0 0 0 0 0 0 0 0.25 0 " />
			<feBlend result="effect_dropShadow_1" in2="BackgroundImageFix" mode="normal" />
			<feBlend result="shape" in="SourceGraphic" in2="effect_dropShadow_1" mode="normal" />
		</filter>
		<g id="pixso_custom_effect_2">
			<effect x="0.000000" y="28.000000" visibility="visible" fill="rgb(108.993,108.056,114.75)" fill-opacity="0.119999997" effectType="dropShadow" stdDeviation="118" radius="0" />
		</g>
		<filter id="filter_2" width="586.000000" height="362.000000" x="0.000000" y="0.000000" filterUnits="userSpaceOnUse" customEffect="url(#pixso_custom_effect_2)" color-interpolation-filters="sRGB">
			<feFlood flood-opacity="0" result="BackgroundImageFix" />
			<feColorMatrix result="hardAlpha" in="SourceAlpha" type="matrix" values="0 0 0 0 0 0 0 0 0 0 0 0 0 0 0 0 0 0 127 0 " />
			<feOffset dx="0.000000" dy="28.000000" in="hardAlpha" />
			<feGaussianBlur stdDeviation="39.3333321" />
			<feComposite k2="-1" k3="1" in2="hardAlpha" operator="out" />
			<feColorMatrix type="matrix" values="0 0 0 0 0.427425 0 0 0 0 0.42375 0 0 0 0 0.45 0 0 0 0.12 0 " />
			<feBlend result="effect_dropShadow_1" in2="BackgroundImageFix" mode="normal" />
			<feBlend result="shape" in="SourceGraphic" in2="effect_dropShadow_1" mode="normal" />
		</filter>
		<filter id="pixso_custom_mask_type_alpha">
			<feColorMatrix type="matrix" values="0 0 0 0 1 0 0 0 0 1 0 0 0 0 1 0 0 0 1 0 " />
		</filter>
	</defs>
	<g id="Rating" filter="url(#filter_1)">
		<g filter="url(#filter_2)">
			<rect id="BG" width="326.000000" height="102.000000" x="130.000000" y="102.000000" rx="57.000000" fill="rgb(255,255,255)" />
			<rect id="BG" width="338.000000" height="114.000000" x="124.000000" y="96.000000" rx="57.000000" stroke="rgb(225.25,225.25,225.25)" stroke-opacity="0.430000007" stroke-width="12" />
		</g>
		<g id="Stars">
			<path id="Star 1" d="M261.926 144.032C262.357 144.823 263.121 145.378 264.007 145.544L268.712 146.425C271.046 146.862 271.971 149.709 270.34 151.435L267.051 154.913C266.432 155.568 266.14 156.467 266.256 157.36L266.872 162.107C267.178 164.462 264.756 166.222 262.611 165.203L258.286 163.151C257.472 162.764 256.528 162.764 255.714 163.151L251.389 165.203C249.244 166.222 246.822 164.462 247.128 162.107L247.744 157.36C247.86 156.467 247.568 155.568 246.949 154.913L243.66 151.435C242.029 149.709 242.954 146.862 245.288 146.425L249.993 145.544C250.879 145.378 251.643 144.823 252.074 144.032L254.366 139.829C255.503 137.745 258.497 137.745 259.634 139.829L261.926 144.032Z" fill="rgb(255,181.9,72.25)" fill-rule="evenodd" />
			<path id="Star 2" d="M299.926 144.032C300.357 144.823 301.121 145.378 302.007 145.544L306.712 146.425C309.046 146.862 309.971 149.709 308.34 151.435L305.051 154.913C304.432 155.568 304.14 156.467 304.256 157.36L304.872 162.107C305.178 164.462 302.756 166.222 300.611 165.203L296.286 163.151C295.472 162.764 294.528 162.764 293.714 163.151L289.389 165.203C287.244 166.222 284.822 164.462 285.128 162.107L285.744 157.36C285.86 156.467 285.568 155.568 284.949 154.913L281.66 151.435C280.029 149.709 280.954 146.862 283.288 146.425L287.993 145.544C288.879 145.378 289.643 144.823 290.074 144.032L292.366 139.829C293.503 137.745 296.497 137.745 297.634 139.829L299.926 144.032Z" fill="rgb(255,181.9,72.25)" fill-rule="evenodd" />
			<path id="Star 3" d="M336.926 144.032C337.357 144.823 338.121 145.378 339.007 145.544L343.712 146.425C346.046 146.862 346.971 149.709 345.34 151.435L342.051 154.913C341.432 155.568 341.14 156.467 341.256 157.36L341.872 162.107C342.178 164.462 339.756 166.222 337.611 165.203L333.286 163.151C332.472 162.764 331.528 162.764 330.714 163.151L326.389 165.203C324.244 166.222 321.822 164.462 322.128 162.107L322.744 157.36C322.86 156.467 322.568 155.568 321.949 154.913L318.66 151.435C317.029 149.709 317.954 146.862 320.288 146.425L324.993 145.544C325.879 145.378 326.643 144.823 327.074 144.032L329.366 139.829C330.503 137.745 333.497 137.745 334.634 139.829L336.926 144.032Z" fill="rgb(255,181.9,72.25)" fill-rule="evenodd" />
			<path id="Star 4" d="M374.926 144.032C375.357 144.823 376.121 145.378 377.007 145.544L381.712 146.425C384.046 146.862 384.971 149.709 383.34 151.435L380.051 154.913C379.432 155.568 379.14 156.467 379.256 157.36L379.872 162.107C380.178 164.462 377.756 166.222 375.611 165.203L371.286 163.151C370.472 162.764 369.528 162.764 368.714 163.151L364.389 165.203C362.244 166.222 359.822 164.462 360.128 162.107L360.744 157.36C360.86 156.467 360.568 155.568 359.949 154.913L356.66 151.435C355.029 149.709 355.954 146.862 358.288 146.425L362.993 145.544C363.879 145.378 364.643 144.823 365.074 144.032L367.366 139.829C368.503 137.745 371.497 137.745 372.634 139.829L374.926 144.032Z" fill="rgb(255,181.9,72.25)" fill-rule="evenodd" />
			<path id="Star 5" d="M410.926 144.032C411.357 144.823 412.121 145.378 413.007 145.544L417.712 146.425C420.046 146.862 420.971 149.709 419.34 151.435L416.051 154.913C415.432 155.568 415.14 156.467 415.256 157.36L415.872 162.107C416.178 164.462 413.756 166.222 411.611 165.203L407.286 163.151C406.472 162.764 405.528 162.764 404.714 163.151L400.389 165.203C398.244 166.222 395.822 164.462 396.128 162.107L396.744 157.36C396.86 156.467 396.568 155.568 395.949 154.913L392.66 151.435C391.029 149.709 391.954 146.862 394.288 146.425L398.993 145.544C399.879 145.378 400.643 144.823 401.074 144.032L403.366 139.829C404.503 137.745 407.497 137.745 408.634 139.829L410.926 144.032Z" fill="rgb(214.625,208.544,199.422)" fill-rule="evenodd" />
			<g id="Star 5 Yellow" mask="url(#mask_0)">
				<rect id="Rectangle 1308" width="16.000004" height="43.000000" x="0.000000" y="0.000000" fill="rgb(255,181.9,72.25)" transform="matrix(-1,-8.74228e-08,8.74228e-08,-1,405,173)" />
			</g>
		</g>
		<path id="Rating" d="M170.12 174.128L171.544 174.128L171.544 169.872L174.912 169.872L176.976 174.128L178.608 174.128L176.384 169.56C177.035 169.288 177.528 168.859 177.864 168.272C178.2 167.68 178.368 167.003 178.368 166.24C178.368 165.323 178.125 164.536 177.64 163.88C177.16 163.219 176.453 162.816 175.52 162.672C175.371 162.645 175.219 162.629 175.064 162.624C174.915 162.613 174.784 162.608 174.672 162.608L170.12 162.608L170.12 174.128ZM171.544 168.52L171.544 163.96L174.624 163.96C174.725 163.96 174.84 163.965 174.968 163.976C175.101 163.987 175.227 164.005 175.344 164.032C175.899 164.155 176.299 164.435 176.544 164.872C176.789 165.304 176.912 165.76 176.912 166.24C176.912 166.72 176.789 167.179 176.544 167.616C176.299 168.048 175.899 168.325 175.344 168.448C175.227 168.475 175.101 168.493 174.968 168.504C174.84 168.515 174.725 168.52 174.624 168.52L171.544 168.52ZM182.826 174.368C184.266 174.368 185.333 173.84 186.026 172.784L186.026 174.128L187.29 174.128L187.29 168.784C187.29 168.443 187.274 168.117 187.242 167.808C187.21 167.493 187.133 167.203 187.01 166.936C186.765 166.371 186.359 165.949 185.794 165.672C185.229 165.389 184.557 165.248 183.778 165.248C182.802 165.248 182.013 165.464 181.41 165.896C180.813 166.328 180.413 166.923 180.21 167.68L181.562 168.088C181.717 167.56 181.991 167.176 182.386 166.936C182.781 166.696 183.239 166.576 183.762 166.576C184.509 166.576 185.045 166.744 185.37 167.08C185.701 167.411 185.874 167.92 185.89 168.608C185.25 168.699 184.578 168.795 183.874 168.896C183.175 168.992 182.554 169.112 182.01 169.256C181.354 169.448 180.837 169.749 180.458 170.16C180.079 170.565 179.89 171.109 179.89 171.792C179.89 172.256 179.999 172.683 180.218 173.072C180.442 173.461 180.77 173.776 181.202 174.016C181.639 174.251 182.181 174.368 182.826 174.368ZM183.042 173.176C182.429 173.176 181.986 173.035 181.714 172.752C181.442 172.464 181.306 172.141 181.306 171.784C181.306 171.379 181.439 171.069 181.706 170.856C181.978 170.637 182.293 170.472 182.65 170.36C183.071 170.243 183.562 170.144 184.122 170.064C184.682 169.984 185.266 169.904 185.874 169.824C185.874 170.021 185.863 170.245 185.842 170.496C185.826 170.747 185.789 170.976 185.73 171.184C185.629 171.717 185.346 172.184 184.882 172.584C184.423 172.979 183.81 173.176 183.042 173.176ZM194.194 174.128L194.194 172.904C193.602 172.995 193.095 173.011 192.674 172.952C192.258 172.893 191.954 172.693 191.762 172.352C191.661 172.171 191.605 171.957 191.594 171.712C191.589 171.461 191.586 171.157 191.586 170.8L191.586 166.664L194.194 166.664L194.194 165.488L191.586 165.488L191.586 163.088L190.162 163.088L190.162 165.488L188.41 165.488L188.41 166.664L190.162 166.664L190.162 170.864C190.162 171.312 190.167 171.712 190.178 172.064C190.194 172.411 190.287 172.752 190.458 173.088C190.661 173.477 190.957 173.765 191.346 173.952C191.735 174.133 192.178 174.232 192.674 174.248C193.175 174.269 193.682 174.229 194.194 174.128ZM196.108 163.96L197.532 163.96L197.532 162.488L196.108 162.488L196.108 163.96ZM196.108 174.128L197.532 174.128L197.532 165.488L196.108 165.488L196.108 174.128ZM199.924 174.128L201.365 174.128L201.365 169.576C201.365 168.573 201.581 167.829 202.012 167.344C202.45 166.859 203.026 166.616 203.741 166.616C204.348 166.616 204.823 166.768 205.165 167.072C205.506 167.376 205.743 167.771 205.876 168.256C206.015 168.741 206.085 169.256 206.085 169.8L206.085 174.128L207.525 174.128L207.525 169.352C207.525 168.941 207.474 168.501 207.372 168.032C207.277 167.557 207.1 167.112 206.844 166.696C206.594 166.275 206.245 165.931 205.797 165.664C205.354 165.397 204.783 165.264 204.085 165.264C202.826 165.264 201.866 165.709 201.204 166.6L201.204 165.488L199.924 165.488L199.924 174.128ZM212.996 174.368C213.53 174.368 214.007 174.277 214.428 174.096C214.855 173.915 215.223 173.661 215.532 173.336L215.532 174.168C215.548 175.944 214.74 176.832 213.108 176.832C212.687 176.832 212.282 176.736 211.892 176.544C211.503 176.352 211.202 176.045 210.988 175.624L209.684 176.312C210.047 176.957 210.538 177.435 211.156 177.744C211.775 178.053 212.423 178.208 213.1 178.208C214.135 178.208 214.978 177.987 215.628 177.544C216.284 177.107 216.695 176.429 216.86 175.512C216.903 175.299 216.93 175.083 216.94 174.864C216.956 174.651 216.964 174.424 216.964 174.184L216.964 165.488L215.7 165.488L215.7 166.456C215.386 166.077 215.002 165.781 214.548 165.568C214.095 165.355 213.575 165.248 212.988 165.248C212.188 165.248 211.5 165.448 210.924 165.848C210.348 166.243 209.903 166.784 209.588 167.472C209.279 168.16 209.124 168.936 209.124 169.8C209.124 170.664 209.279 171.44 209.588 172.128C209.898 172.816 210.34 173.363 210.916 173.768C211.498 174.168 212.191 174.368 212.996 174.368ZM213.172 173.064C212.607 173.064 212.135 172.92 211.756 172.632C211.383 172.344 211.103 171.955 210.916 171.464C210.73 170.968 210.636 170.413 210.636 169.8C210.636 169.192 210.727 168.643 210.908 168.152C211.095 167.661 211.378 167.272 211.756 166.984C212.14 166.696 212.626 166.552 213.212 166.552C214.055 166.552 214.679 166.856 215.084 167.464C215.495 168.067 215.7 168.845 215.7 169.8C215.7 170.749 215.498 171.531 215.092 172.144C214.687 172.757 214.047 173.064 213.172 173.064Z" opacity="0.699999988" fill="rgb(0,0,0)" fill-rule="nonzero" />
		<path id="4.5/5" d="M177 153.192L179.544 153.192L179.544 150.18L181.26 150.18L181.26 147.804L179.544 147.804L179.544 143.124L177 143.124L177 147.804L172.068 147.804L177.684 135.912L174.816 135.912L169.2 147.804L169.2 150.18L177 150.18L177 153.192ZM183.384 153.192L186.036 153.192L186.036 150.54L183.384 150.54L183.384 153.192ZM194.223 153.552C195.303 153.552 196.295 153.292 197.199 152.772C198.111 152.252 198.843 151.556 199.395 150.684C199.947 149.804 200.223 148.828 200.223 147.756C200.223 146.676 199.979 145.708 199.491 144.852C199.011 143.996 198.347 143.324 197.499 142.836C196.659 142.34 195.699 142.092 194.619 142.092C194.107 142.092 193.591 142.172 193.071 142.332C192.559 142.492 192.091 142.724 191.667 143.028L191.955 138.276L199.035 138.276L199.035 135.912L189.711 135.912L189.183 144.996L191.367 145.764C191.639 145.404 192.019 145.084 192.507 144.804C192.995 144.516 193.591 144.372 194.295 144.372C194.911 144.372 195.475 144.524 195.987 144.828C196.507 145.124 196.919 145.528 197.223 146.04C197.535 146.552 197.691 147.124 197.691 147.756C197.691 148.372 197.539 148.936 197.235 149.448C196.931 149.96 196.523 150.368 196.011 150.672C195.499 150.976 194.927 151.128 194.295 151.128C193.575 151.128 192.899 150.904 192.267 150.456C191.643 150 191.231 149.388 191.031 148.62L188.619 149.268C188.859 150.108 189.251 150.852 189.795 151.5C190.339 152.14 190.991 152.644 191.751 153.012C192.511 153.372 193.335 153.552 194.223 153.552ZM206.74 135.912L209.272 135.912L204.664 153.192L202.132 153.192L206.74 135.912ZM216.807 153.552C217.887 153.552 218.879 153.292 219.783 152.772C220.695 152.252 221.427 151.556 221.979 150.684C222.531 149.804 222.807 148.828 222.807 147.756C222.807 146.676 222.563 145.708 222.075 144.852C221.595 143.996 220.931 143.324 220.083 142.836C219.243 142.34 218.283 142.092 217.203 142.092C216.691 142.092 216.175 142.172 215.655 142.332C215.143 142.492 214.675 142.724 214.251 143.028L214.539 138.276L221.619 138.276L221.619 135.912L212.295 135.912L211.767 144.996L213.951 145.764C214.223 145.404 214.603 145.084 215.091 144.804C215.579 144.516 216.175 144.372 216.879 144.372C217.495 144.372 218.059 144.524 218.571 144.828C219.091 145.124 219.503 145.528 219.807 146.04C220.119 146.552 220.275 147.124 220.275 147.756C220.275 148.372 220.123 148.936 219.819 149.448C219.515 149.96 219.107 150.368 218.595 150.672C218.083 150.976 217.511 151.128 216.879 151.128C216.159 151.128 215.483 150.904 214.851 150.456C214.227 150 213.815 149.388 213.615 148.62L211.203 149.268C211.443 150.108 211.835 150.852 212.379 151.5C212.923 152.14 213.575 152.644 214.335 153.012C215.095 153.372 215.919 153.552 216.807 153.552Z" fill="rgb(0,0,0)" fill-rule="nonzero" />
	</g>
</svg>
