<svg viewBox="0 0 541.635 362" xmlns="http://www.w3.org/2000/svg" xmlns:xlink="http://www.w3.org/1999/xlink" width="541.635010" height="362.000000" fill="none" customFrame="#000000">
	<defs>
		<g id="pixso_custom_effect_0">
			<effect x="0.000000" y="28.000000" visibility="visible" fill="rgb(108.993,108.056,114.75)" fill-opacity="0.119999997" effectType="dropShadow" stdDeviation="118" radius="0" />
		</g>
		<filter id="filter_0" width="541.635010" height="362.000000" x="0.000000" y="0.000000" filterUnits="userSpaceOnUse" customEffect="url(#pixso_custom_effect_0)" color-interpolation-filters="sRGB">
			<feFlood flood-opacity="0" result="BackgroundImageFix" />
			<feColorMatrix result="hardAlpha" in="SourceAlpha" type="matrix" values="0 0 0 0 0 0 0 0 0 0 0 0 0 0 0 0 0 0 127 0 " />
			<feOffset dx="0.000000" dy="28.000000" in="hardAlpha" />
			<feGaussianBlur stdDeviation="39.3333321" />
			<feComposite k2="-1" k3="1" in2="hardAlpha" operator="out" />
			<feColorMatrix type="matrix" values="0 0 0 0 0.427425 0 0 0 0 0.42375 0 0 0 0 0.45 0 0 0 0.12 0 " />
			<feBlend result="effect_dropShadow_1" in2="BackgroundImageFix" mode="normal" />
			<feBlend result="shape" in="SourceGraphic" in2="effect_dropShadow_1" mode="normal" />
		</filter>
		<linearGradient id="paint_linear_0" x1="246.933258" x2="351.924408" y1="-9" y2="326" gradientUnits="userSpaceOnUse">
			<stop stop-color="rgb(255,255,255)" offset="0" stop-opacity="1" />
			<stop stop-color="rgb(255,255,255)" offset="1" stop-opacity="1" />
		</linearGradient>
	</defs>
	<g id="Service">
		<g filter="url(#filter_0)">
			<rect id="BG" width="281.635040" height="102.000000" x="130.000000" y="102.000000" rx="57.000000" fill="url(#paint_linear_0)" />
			<rect id="BG" width="293.635040" height="114.000000" x="124.000000" y="96.000000" rx="57.000000" stroke="rgb(225.25,225.25,225.25)" stroke-opacity="0.430000007" stroke-width="12" />
		</g>
		<path id="Quick service" d="M243.223 160.544L238.4 155.745L240.006 154.133L244.811 158.938L243.223 160.544ZM236.889 160.549C235.162 160.549 233.689 160.172 232.471 159.419C231.256 158.661 230.326 157.606 229.682 156.255C229.041 154.899 228.721 153.331 228.721 151.549C228.721 149.768 229.041 148.202 229.682 146.85C230.326 145.499 231.256 144.444 232.471 143.686C233.689 142.928 235.162 142.549 236.889 142.549C238.615 142.549 240.086 142.928 241.301 143.686C242.52 144.444 243.449 145.499 244.09 146.85C244.734 148.202 245.057 149.768 245.057 151.549C245.057 153.331 244.734 154.899 244.09 156.255C243.449 157.606 242.52 158.661 241.301 159.419C240.086 160.172 238.615 160.549 236.889 160.549ZM236.889 158.171C238.111 158.178 239.129 157.907 239.941 157.356C240.758 156.801 241.369 156.026 241.775 155.03C242.186 154.03 242.391 152.87 242.391 151.549C242.391 150.233 242.186 149.081 241.775 148.092C241.369 147.104 240.758 146.335 239.941 145.784C239.129 145.229 238.111 144.946 236.889 144.934C235.666 144.926 234.648 145.198 233.836 145.749C233.023 146.299 232.412 147.075 232.002 148.075C231.596 149.075 231.391 150.233 231.387 151.549C231.379 152.87 231.578 154.024 231.984 155.012C232.395 156.001 233.008 156.772 233.824 157.327C234.645 157.878 235.666 158.159 236.889 158.171ZM251.62 160.544C250.726 160.544 249.974 160.399 249.365 160.11C248.755 159.817 248.259 159.438 247.876 158.973C247.497 158.505 247.208 157.995 247.009 157.444C246.81 156.893 246.673 156.354 246.599 155.827C246.529 155.296 246.493 154.831 246.493 154.432L246.493 147.231L249.036 147.231L249.036 153.6C249.036 154.104 249.077 154.624 249.159 155.159C249.245 155.69 249.406 156.184 249.64 156.641C249.874 157.098 250.204 157.467 250.63 157.749C251.06 158.03 251.618 158.171 252.306 158.171C252.759 158.171 253.185 158.094 253.583 157.942C253.982 157.79 254.331 157.549 254.632 157.221C254.933 156.893 255.169 156.462 255.341 155.926C255.517 155.391 255.605 154.741 255.605 153.975L257.163 154.561C257.163 155.737 256.943 156.776 256.501 157.678C256.064 158.577 255.431 159.28 254.603 159.788C253.779 160.292 252.784 160.544 251.62 160.544ZM255.898 160.192L255.898 156.448L255.605 156.448L255.605 147.231L258.13 147.231L258.13 160.192L255.898 160.192ZM261.014 145.104L261.014 142.672L263.522 142.672L263.522 145.104L261.014 145.104ZM261.014 160.192L261.014 147.231L263.522 147.231L263.522 160.192L261.014 160.192ZM271.945 160.549C270.62 160.549 269.491 160.255 268.558 159.665C267.628 159.071 266.917 158.26 266.425 157.233C265.937 156.202 265.689 155.028 265.681 153.712C265.689 152.376 265.945 151.194 266.449 150.167C266.956 149.135 267.677 148.329 268.611 147.747C269.548 147.165 270.669 146.874 271.974 146.874C273.396 146.874 274.609 147.227 275.613 147.934C276.616 148.637 277.279 149.6 277.599 150.823L275.103 151.538C274.857 150.811 274.45 150.247 273.884 149.844C273.318 149.442 272.671 149.241 271.945 149.241C271.124 149.241 270.449 149.434 269.917 149.821C269.386 150.204 268.991 150.733 268.734 151.409C268.48 152.081 268.351 152.848 268.347 153.712C268.355 155.051 268.659 156.131 269.261 156.952C269.863 157.772 270.757 158.182 271.945 158.182C272.753 158.182 273.408 157.999 273.908 157.631C274.408 157.26 274.788 156.725 275.05 156.026L277.599 156.63C277.177 157.895 276.478 158.866 275.501 159.542C274.525 160.214 273.339 160.549 271.945 160.549ZM279.308 160.192L279.326 142.913L281.869 142.913L281.869 153.471L286.955 147.231L290.148 147.231L284.775 153.712L290.699 160.192L287.294 160.192L281.869 153.952L281.869 160.192L279.308 160.192ZM300.213 160.544C298.635 160.544 297.35 160.196 296.357 159.501C295.369 158.801 294.764 157.821 294.541 156.559L297.107 156.161C297.271 156.833 297.641 157.364 298.215 157.755C298.793 158.141 299.516 158.335 300.383 158.335C301.168 158.335 301.781 158.174 302.223 157.854C302.668 157.534 302.891 157.094 302.891 156.536C302.891 156.208 302.812 155.942 302.656 155.739C302.504 155.536 302.178 155.342 301.678 155.159C301.182 154.971 300.426 154.743 299.41 154.473C298.297 154.18 297.416 153.87 296.768 153.542C296.119 153.21 295.654 152.823 295.373 152.381C295.096 151.936 294.957 151.395 294.957 150.758C294.957 149.977 295.166 149.296 295.584 148.714C296.002 148.128 296.588 147.674 297.342 147.354C298.1 147.034 298.984 146.874 299.996 146.874C300.992 146.874 301.879 147.03 302.656 147.342C303.434 147.655 304.06 148.098 304.537 148.672C305.018 149.243 305.307 149.913 305.404 150.682L302.838 151.145C302.748 150.524 302.455 150.034 301.959 149.674C301.463 149.311 300.816 149.114 300.019 149.083C299.262 149.047 298.646 149.172 298.174 149.458C297.705 149.743 297.471 150.133 297.471 150.63C297.471 150.915 297.56 151.157 297.74 151.356C297.92 151.555 298.269 151.749 298.789 151.936C299.312 152.124 300.08 152.344 301.092 152.598C302.182 152.88 303.045 153.19 303.682 153.53C304.322 153.866 304.781 154.268 305.059 154.737C305.336 155.202 305.475 155.77 305.475 156.442C305.475 157.719 305.008 158.723 304.074 159.454C303.141 160.18 301.853 160.544 300.213 160.544ZM313.154 160.549C311.861 160.549 310.73 160.268 309.761 159.706C308.792 159.139 308.036 158.352 307.494 157.344C306.954 156.333 306.685 155.159 306.685 153.823C306.685 152.409 306.951 151.182 307.482 150.143C308.013 149.1 308.753 148.296 309.703 147.729C310.656 147.159 311.765 146.874 313.031 146.874C314.347 146.874 315.47 147.18 316.4 147.794C317.329 148.407 318.023 149.278 318.48 150.407C318.941 151.532 319.126 152.868 319.036 154.415L316.523 154.415L316.523 153.506C316.507 152.003 316.22 150.891 315.661 150.172C315.107 149.454 314.261 149.094 313.124 149.094C311.87 149.094 310.927 149.491 310.294 150.284C309.665 151.073 309.351 152.215 309.351 153.712C309.351 155.133 309.665 156.235 310.294 157.016C310.927 157.794 311.839 158.182 313.031 158.182C313.812 158.182 314.49 158.006 315.064 157.655C315.638 157.299 316.085 156.788 316.406 156.12L318.861 156.905C318.361 158.061 317.597 158.958 316.57 159.594C315.546 160.231 314.408 160.549 313.154 160.549ZM308.531 154.415L308.531 152.464L317.783 152.464L317.783 154.415L308.531 154.415ZM321.002 160.192L321.002 147.231L323.234 147.231L323.234 150.378L322.918 149.967C323.078 149.553 323.285 149.172 323.539 148.825C323.797 148.477 324.093 148.192 324.429 147.969C324.758 147.727 325.125 147.54 325.531 147.407C325.937 147.274 326.351 147.194 326.773 147.167C327.199 147.139 327.605 147.161 327.992 147.231L327.992 149.587C327.574 149.469 327.105 149.436 326.586 149.487C326.07 149.534 325.597 149.7 325.168 149.985C324.761 150.243 324.437 150.561 324.195 150.94C323.957 151.319 323.785 151.739 323.679 152.2C323.578 152.657 323.527 153.139 323.527 153.647L323.527 160.192L321.002 160.192ZM333.062 160.192L328.356 147.231L330.882 147.231L334.333 157.046L337.772 147.231L340.31 147.231L335.605 160.192L333.062 160.192ZM341.99 145.104L341.99 142.672L344.498 142.672L344.498 145.104L341.99 145.104ZM341.99 160.192L341.99 147.231L344.498 147.231L344.498 160.192L341.99 160.192ZM352.921 160.549C351.596 160.549 350.467 160.255 349.534 159.665C348.604 159.071 347.893 158.26 347.401 157.233C346.913 156.202 346.665 155.028 346.657 153.712C346.665 152.376 346.921 151.194 347.424 150.167C347.932 149.135 348.653 148.329 349.587 147.747C350.524 147.165 351.645 146.874 352.95 146.874C354.372 146.874 355.585 147.227 356.589 147.934C357.592 148.637 358.255 149.6 358.575 150.823L356.079 151.538C355.833 150.811 355.426 150.247 354.86 149.844C354.294 149.442 353.647 149.241 352.921 149.241C352.1 149.241 351.424 149.434 350.893 149.821C350.362 150.204 349.967 150.733 349.71 151.409C349.456 152.081 349.327 152.848 349.323 153.712C349.331 155.051 349.635 156.131 350.237 156.952C350.839 157.772 351.733 158.182 352.921 158.182C353.729 158.182 354.383 157.999 354.883 157.631C355.383 157.26 355.764 156.725 356.026 156.026L358.575 156.63C358.153 157.895 357.454 158.866 356.477 159.542C355.501 160.214 354.315 160.549 352.921 160.549ZM365.69 160.549C364.397 160.549 363.266 160.268 362.297 159.706C361.328 159.139 360.573 158.352 360.03 157.344C359.49 156.333 359.221 155.159 359.221 153.823C359.221 152.409 359.487 151.182 360.018 150.143C360.549 149.1 361.289 148.296 362.239 147.729C363.192 147.159 364.301 146.874 365.567 146.874C366.883 146.874 368.006 147.18 368.936 147.794C369.865 148.407 370.559 149.278 371.016 150.407C371.477 151.532 371.662 152.868 371.573 154.415L369.059 154.415L369.059 153.506C369.043 152.003 368.756 150.891 368.198 150.172C367.643 149.454 366.797 149.094 365.66 149.094C364.406 149.094 363.463 149.491 362.83 150.284C362.201 151.073 361.887 152.215 361.887 153.712C361.887 155.133 362.201 156.235 362.83 157.016C363.463 157.794 364.375 158.182 365.567 158.182C366.348 158.182 367.026 158.006 367.6 157.655C368.174 157.299 368.621 156.788 368.942 156.12L371.397 156.905C370.897 158.061 370.133 158.958 369.106 159.594C368.082 160.231 366.944 160.549 365.69 160.549ZM361.067 154.415L361.067 152.464L370.319 152.464L370.319 154.415L361.067 154.415Z" fill="rgb(29.75,27.1469,27.1469)" fill-rule="nonzero" />
		<g id="Circle">
			<ellipse id="BG" rx="34.831188" ry="35.000000" cx="178.762833" cy="152" fill="rgb(92.194,185.938,153.35)" />
			<path id="hr" d="M194.904 160L194.904 155.754Q194.904 155.246 194.818 154.715Q194.736 154.184 194.501 153.727Q194.267 153.27 193.837 152.992Q193.412 152.711 192.724 152.711Q192.271 152.711 191.873 152.863Q191.474 153.012 191.173 153.34Q190.873 153.668 190.697 154.203Q190.525 154.734 190.525 155.504L189.486 155.113Q189.486 153.938 189.923 153.039Q190.365 152.137 191.189 151.633Q192.017 151.125 193.181 151.125Q194.076 151.125 194.685 151.418Q195.294 151.707 195.673 152.176Q196.056 152.645 196.255 153.195Q196.455 153.742 196.525 154.273Q196.599 154.801 196.599 155.199L196.599 160L194.904 160ZM188.83 160L188.83 148.48L190.33 148.48L190.33 154.691L190.525 154.691L190.525 160L188.83 160ZM198.681 160L198.681 151.359L200.17 151.359L200.17 153.457L199.959 153.184Q200.119 152.77 200.373 152.422Q200.631 152.074 200.966 151.852Q201.295 151.609 201.701 151.477Q202.107 151.344 202.529 151.316Q202.955 151.289 203.341 151.359L203.341 152.93Q202.923 152.812 202.404 152.863Q201.888 152.91 201.459 153.195Q201.052 153.453 200.81 153.832Q200.572 154.211 200.466 154.672Q200.365 155.129 200.365 155.637L200.365 160L198.681 160Z" fill="rgb(255,255,255)" fill-rule="nonzero" />
			<path id="24" d="M158.07 160.982L158.076 158.762L165.605 152.018Q166.52 151.203 166.848 150.477Q167.182 149.744 167.182 149.018Q167.182 148.086 166.766 147.348Q166.355 146.609 165.635 146.176Q164.92 145.742 163.988 145.742Q163.027 145.742 162.277 146.199Q161.527 146.65 161.105 147.395Q160.684 148.133 160.701 149L158.123 149Q158.123 147.324 158.885 146.053Q159.646 144.781 160.977 144.072Q162.312 143.357 164.035 143.357Q165.67 143.357 166.965 144.096Q168.26 144.834 169.01 146.123Q169.76 147.406 169.76 149.047Q169.76 150.23 169.449 151.062Q169.139 151.895 168.512 152.604Q167.885 153.312 166.947 154.139L161.141 159.318L160.871 158.598L169.76 158.598L169.76 160.982L158.07 160.982ZM178.757 161L178.757 157.982L170.958 157.982L170.958 155.615L176.572 143.721L179.437 143.721L173.824 155.615L178.757 155.615L178.757 150.934L181.3 150.934L181.3 155.615L183.011 155.615L183.011 157.982L181.3 157.982L181.3 161L178.757 161Z" fill="rgb(255,255,255)" fill-rule="nonzero" />
		</g>
	</g>
</svg>
